<svg width="28" height="28" viewBox="0 0 28 28" fill="none" xmlns="http://www.w3.org/2000/svg">
<path opacity="0.2" d="M13.5625 27.6094C21.0529 27.6094 27.125 21.5372 27.125 14.0469C27.125 6.55651 21.0529 0.484375 13.5625 0.484375C6.07214 0.484375 0 6.55651 0 14.0469C0 21.5372 6.07214 27.6094 13.5625 27.6094Z" fill="black"/>
<path d="M13.5625 27.125C21.0529 27.125 27.125 21.0529 27.125 13.5625C27.125 6.07214 21.0529 0 13.5625 0C6.07214 0 0 6.07214 0 13.5625C0 21.0529 6.07214 27.125 13.5625 27.125Z" fill="#15517C"/>
<path opacity="0.2" d="M13.5625 0C9.9655 0 6.51583 1.4289 3.97236 3.97236C1.4289 6.51583 0 9.9655 0 13.5625C0.00213917 13.642 0.00497742 13.7215 0.0085144 13.8009C0.0729574 10.2482 1.52909 6.86264 4.06377 4.37237C6.59844 1.8821 10.0092 0.486021 13.5625 0.484375C17.1152 0.487012 20.5249 1.88353 23.0588 4.37369C25.5927 6.86386 27.0483 10.2488 27.1127 13.8009C27.1175 13.7215 27.1216 13.642 27.125 13.5625C27.125 9.9655 25.6961 6.51583 23.1526 3.97236C20.6092 1.4289 17.1595 0 13.5625 0V0Z" fill="white"/>
<path opacity="0.2" d="M10.6563 5.32812V8.23438H7.75V10.1719C7.75 10.1719 8.85985 10.1525 8.84214 10.1719C9.43635 10.1629 9.62557 10.5943 9.6871 10.882V17.276C9.66432 17.4579 9.68371 17.909 9.2684 17.9219C9.28758 17.9387 7.75 17.9219 7.75 17.9219V19.8594H9.85104C10.2063 19.8465 10.3131 19.8594 10.6563 19.8594V22.7656H12.5938V19.8594H13.5423L13.5827 22.7656H15.5L15.4798 19.8594C17.9436 19.6805 19.375 18.5011 19.3587 16.4688C19.375 14.5991 17.8799 13.5687 16.9531 13.5625C17.8797 13.5661 18.4063 12.5583 18.4063 11.1406C18.4063 9.20312 17.0692 8.23438 15.5 8.23438V5.32812H13.5625V8.23438C13.1769 8.23438 12.9853 8.22016 12.5938 8.23438V5.32812H10.6563ZM12.5938 10.1719C14.5313 10.1719 15.5 10.1719 15.5 11.625C15.5 13.0781 14.5313 13.0781 12.5938 13.0781V10.1719ZM12.5938 15.0156C15.1765 15.0157 16.469 14.8542 16.4688 16.4688C16.469 18.0834 15.1765 17.9219 12.5938 17.9219V15.0156Z" fill="black"/>
<path d="M10.6563 4.84375V7.75H7.75V9.6875C7.75 9.6875 8.85985 9.66814 8.84214 9.6875C9.43635 9.67849 9.62557 10.1099 9.6871 10.3977V16.7917C9.66432 16.9735 9.68371 17.4246 9.2684 17.4375C9.28758 17.4543 7.75 17.4375 7.75 17.4375V19.375H9.85104C10.2063 19.3621 10.3131 19.375 10.6563 19.375V22.2812H12.5938V19.375H13.5423L13.5827 22.2812H15.5L15.4798 19.375C17.9436 19.1961 19.375 18.0167 19.3587 15.9844C19.375 14.1148 17.8799 13.0843 16.9531 13.0781C17.8797 13.0818 18.4063 12.074 18.4063 10.6562C18.4063 8.71875 17.0692 7.75 15.5 7.75V4.84375H13.5625V7.75C13.1769 7.75 12.9853 7.73579 12.5938 7.75V4.84375H10.6563ZM12.5938 9.6875C14.5313 9.6875 15.5 9.6875 15.5 11.1406C15.5 12.5938 14.5313 12.5938 12.5938 12.5938V9.6875ZM12.5938 14.5312C15.1765 14.5313 16.469 14.3698 16.4688 15.9844C16.469 17.5991 15.1765 17.4375 12.5938 17.4375V14.5312Z" fill="white"/>
</svg>
